<svg width="22" height="22" viewBox="0 0 22 22" fill="none" xmlns="http://www.w3.org/2000/svg">
<g clip-path="url(#clip0_96_1326)">
<path d="M11 22C17.0751 22 22 17.0751 22 11C22 4.92487 17.0751 0 11 0C4.92487 0 0 4.92487 0 11C0 17.0751 4.92487 22 11 22Z" fill="white"/>
<path d="M7.5625 6.1875H8.25V9.625H7.5625V6.1875Z" fill="#2A783E"/>
<path d="M6.1875 7.5625H9.625V8.25H6.1875V7.5625Z" fill="#2A783E"/>
<path d="M12.375 14.4375H15.8125V15.125H12.375V14.4375Z" fill="#2A783E"/>
<path d="M12.375 13.0625H15.8125V13.75H12.375V13.0625Z" fill="#2A783E"/>
<path d="M6.1864 15.3257L15.3239 6.18819L15.81 6.67426L6.67246 15.8117L6.1864 15.3257Z" fill="#2A783E"/>
</g>
<defs>
<clipPath id="clip0_96_1326">
<rect width="22" height="22" fill="white"/>
</clipPath>
</defs>
</svg>
