<svg width="50" height="50" viewBox="0 0 50 50" fill="none" xmlns="http://www.w3.org/2000/svg">
<path d="M43.077 22.7607L40.4853 20.1695C39.8702 19.5544 39.3662 18.3389 39.3662 17.4672V13.8025C39.3662 12.0593 37.9421 10.6352 36.1993 10.6343H32.5332C31.6625 10.6343 30.4455 10.1293 29.8303 9.51464L27.2391 6.92342C26.0079 5.69219 23.992 5.69219 22.7608 6.92342L20.1695 9.51649C19.5539 10.1316 18.3356 10.6352 17.4667 10.6352H13.8021C12.0611 10.6352 10.6352 12.0593 10.6352 13.8025V17.4673C10.6352 18.3355 10.1312 19.5549 9.51604 20.1696L6.92436 22.7608C5.69221 23.9921 5.69221 26.008 6.92436 27.2411L9.51604 29.8324C10.1316 30.4475 10.6352 31.6664 10.6352 32.5347V36.1995C10.6352 37.9409 12.0611 39.3668 13.8021 39.3668H17.4668C18.3375 39.3668 19.5544 39.8708 20.1696 40.4855L22.7609 43.0776C23.9921 44.3079 26.008 44.3079 27.2392 43.0776L29.8304 40.4855C30.4461 39.8704 31.6626 39.3668 32.5333 39.3668H36.1994C37.9422 39.3668 39.3663 37.9409 39.3663 36.1995V32.5347C39.3663 31.6626 39.8707 30.4471 40.4854 29.8324L43.0771 27.2411C44.3073 26.008 44.3073 23.992 43.077 22.7607ZM22.4862 32.1256L15.4993 25.1377L17.7385 22.899L22.4868 27.6472L32.2611 17.8753L34.4997 20.114L22.4862 32.1256Z" fill="#F8CD24"/>
</svg>
