<svg width="52" height="52" viewBox="0 0 52 52" fill="none" xmlns="http://www.w3.org/2000/svg">
<path d="M20.258 11.7812H6.85171C6.01037 11.7812 5.32828 12.4633 5.32828 13.3047C5.32828 13.9677 5.75261 14.5302 6.3439 14.7396V23.2578H20.7658V14.7396C21.3571 14.5302 21.7814 13.9677 21.7814 13.3047C21.7814 12.4633 21.0993 11.7812 20.258 11.7812Z" fill="#F8CD24"/>
<path d="M22.8003 3.04688H23.8202V19.6269C23.8176 19.6279 23.8152 19.6289 23.8128 19.6299V31.6882C23.8249 31.6881 23.8368 31.6874 23.849 31.6874C24.782 31.6874 25.5841 32.0406 26.2286 32.3244C26.6708 32.5191 27.0886 32.703 27.3803 32.703C27.6722 32.703 28.09 32.5191 28.5322 32.3244C29.1767 32.0406 29.9788 31.6874 30.9118 31.6874C31.8447 31.6874 32.6468 32.0406 33.2914 32.3244C33.7336 32.5191 34.1513 32.703 34.4432 32.703C34.7351 32.703 35.1527 32.5191 35.5949 32.3244C36.2394 32.0406 37.0416 31.6874 37.9745 31.6874C38.9076 31.6874 39.7096 32.0406 40.3541 32.3244C40.7963 32.5191 41.2141 32.703 41.5059 32.703C41.7976 32.703 42.2154 32.5191 42.6576 32.3244C43.3021 32.0406 44.1042 31.6874 45.0372 31.6874C45.4912 31.6874 45.9213 31.7516 46.3301 31.8494C45.8422 29.4659 44.8376 27.2207 43.3552 25.2331C41.4558 22.6863 38.9318 20.7644 36.0077 19.6268V3.04688H37.0276C37.8689 3.04688 38.551 2.36478 38.551 1.52344C38.551 0.682094 37.8689 0 37.0276 0H22.8003C21.9589 0 21.2768 0.682094 21.2768 1.52344C21.2768 2.36478 21.9589 3.04688 22.8003 3.04688ZM33.3129 25.7968C34.152 25.7968 34.8363 26.4811 34.8363 27.3202C34.8363 28.1593 34.152 28.8436 33.3129 28.8436C32.4738 28.8436 31.7895 28.1592 31.7895 27.3202C31.7895 26.4811 32.4738 25.7968 33.3129 25.7968Z" fill="#F8CD24"/>
<path d="M46.671 35.1635C46.0783 34.9347 45.5196 34.7344 45.0372 34.7344C44.7453 34.7344 44.3277 34.9183 43.8855 35.113C43.2409 35.3968 42.4388 35.75 41.5059 35.75C40.5729 35.75 39.7709 35.3968 39.1262 35.113C38.684 34.9183 38.2663 34.7344 37.9744 34.7344C37.6825 34.7344 37.2649 34.9183 36.8227 35.113C36.1782 35.3968 35.376 35.75 34.4431 35.75C33.5101 35.75 32.708 35.3968 32.0635 35.113C31.6213 34.9183 31.2036 34.7344 30.9118 34.7344C30.62 34.7344 30.2023 34.9183 29.7601 35.113C29.1155 35.3968 28.3134 35.75 27.3804 35.75C26.4475 35.75 25.6453 35.3968 25.0008 35.113C24.5586 34.9183 24.1409 34.7344 23.8491 34.7344C23.8372 34.7344 23.8247 34.7361 23.8129 34.7363V44.788C23.8129 46.7573 23.2546 48.5986 22.2886 50.1624C24.577 51.3369 27.1695 52.0001 29.9139 52.0001C39.1542 52.0001 46.6717 44.4825 46.6717 35.2423C46.6717 35.216 46.6711 35.1898 46.671 35.1635ZM28.84 40.9298C28.0009 40.9298 27.3166 40.2454 27.3166 39.4064C27.3166 38.5672 28.0009 37.8829 28.84 37.8829C29.6791 37.8829 30.3634 38.5672 30.3634 39.4064C30.3634 40.2454 29.6791 40.9298 28.84 40.9298ZM34.4259 43.9766C33.5868 43.9766 32.9025 43.2922 32.9025 42.4531C32.9025 41.614 33.5869 40.9297 34.4259 40.9297C35.265 40.9297 35.9494 41.614 35.9494 42.4531C35.9494 43.2922 35.265 43.9766 34.4259 43.9766Z" fill="#F8CD24"/>
<path d="M6.3439 29.0468H9.46695C10.3083 29.0468 10.9904 29.7289 10.9904 30.5702C10.9904 31.4116 10.3083 32.0936 9.46695 32.0936H6.3439V35.1405H9.46695C10.3083 35.1405 10.9904 35.8226 10.9904 36.664C10.9904 37.5053 10.3083 38.1874 9.46695 38.1874H6.3439V41.2344H9.46695C10.3083 41.2344 10.9904 41.9165 10.9904 42.7578C10.9904 43.5992 10.3083 44.2812 9.46695 44.2812H6.3439V44.7879C6.3439 48.764 9.57877 51.9989 13.5548 51.9989C17.531 51.9989 20.7658 48.764 20.7658 44.7879V26.3047H6.3439V29.0468Z" fill="#F8CD24"/>
</svg>
