<svg width="64" height="64" viewBox="0 0 64 64" fill="none" xmlns="http://www.w3.org/2000/svg">
<g id="lab-report 1">
<path id="Vector" d="M45.584 11.297C45.933 11.297 46.217 11.013 46.217 10.664V6.997C46.217 6.648 45.933 6.364 45.584 6.364H42.705C42.238 6.364 41.834 6.041 41.73 5.587C41.52 4.668 40.681 4 39.735 4C38.789 4 37.951 4.667 37.74 5.587C37.636 6.042 37.231 6.364 36.765 6.364H33.887C33.538 6.364 33.254 6.648 33.254 6.997V10.664C33.254 11.013 33.538 11.297 33.887 11.297H45.584Z" fill="#F8CD24"/>
<path id="Vector_2" d="M5.74 45.54C5.74 46.919 5.941 48.301 6.339 49.647C7.017 51.946 8.275 54.061 9.977 55.763C12.7 58.496 16.331 60 20.201 60C20.785 60 21.367 59.962 21.93 59.888L21.963 59.885C22.197 59.857 22.428 59.811 22.661 59.772C22.825 59.744 22.991 59.724 23.154 59.691C23.369 59.647 23.579 59.586 23.791 59.532C23.966 59.487 24.143 59.451 24.316 59.399C24.509 59.342 24.696 59.27 24.886 59.205C25.073 59.141 25.264 59.084 25.448 59.012C25.619 58.945 25.784 58.865 25.953 58.792C26.15 58.706 26.35 58.627 26.544 58.533C26.694 58.46 26.838 58.374 26.986 58.295C27.19 58.186 27.398 58.083 27.597 57.965C27.727 57.888 27.85 57.799 27.977 57.718C28.186 57.585 28.398 57.456 28.6 57.312C28.726 57.222 28.843 57.121 28.966 57.028C29.161 56.88 29.359 56.736 29.547 56.577C29.853 56.319 30.148 56.047 30.432 55.763C32.138 54.057 33.392 51.944 34.059 49.651C34.465 48.309 34.669 46.93 34.669 45.54C34.669 44.08 34.44 42.666 34.031 41.324C32.747 42.064 30.477 43.062 27.556 43.062C25.271 43.062 22.589 42.451 19.673 40.627C12.871 36.373 7.71 39.653 6.696 40.393C6.082 42.003 5.74 43.738 5.74 45.54ZM10.192 49.002C10.685 50.354 11.49 51.615 12.52 52.649C13.641 53.767 14.962 54.585 16.444 55.079C16.968 55.253 17.252 55.82 17.078 56.344C16.938 56.763 16.548 57.029 16.129 57.029C16.025 57.029 15.918 57.012 15.814 56.977C14.035 56.385 12.451 55.405 11.107 54.063C9.871 52.822 8.906 51.309 8.314 49.687C8.125 49.168 8.392 48.594 8.911 48.405C9.428 48.216 10.004 48.482 10.192 49.002ZM8.579 44.541C9.132 44.541 9.579 44.989 9.579 45.541C9.579 45.764 9.586 45.987 9.601 46.208C9.638 46.759 9.222 47.236 8.67 47.273C8.648 47.274 8.624 47.275 8.602 47.275C8.081 47.275 7.641 46.871 7.605 46.343C7.587 46.076 7.579 45.808 7.579 45.54C7.579 44.988 8.026 44.541 8.579 44.541Z" fill="#F8CD24"/>
<path id="Vector_3" d="M8.31 37.3258C11.099 36.2808 15.546 35.6868 20.734 38.9318C26.872 42.7708 31.685 40.4668 33.312 39.4368C31.53 35.6118 28.119 32.6488 23.831 31.5478C23.39 31.4338 23.08 31.0358 23.08 30.5788V26.5288H17.33V30.5688C17.33 31.0248 17.021 31.4228 16.58 31.5368C13.121 32.4308 10.235 34.5388 8.31 37.3258Z" fill="#F8CD24"/>
<path id="Vector_4" d="M58.26 58.3498V11.4898C58.26 10.5798 57.52 9.83984 56.611 9.83984H48.22V10.6598C48.22 12.1158 47.035 13.2998 45.58 13.2998H33.89C32.435 13.2998 31.25 12.1158 31.25 10.6598V9.83984H22.85C21.941 9.83984 21.201 10.5798 21.201 11.4898V20.2598H23.991C25.717 20.2598 27.121 21.6638 27.121 23.3898C27.121 24.2128 26.807 24.9968 26.236 25.5978C26.07 25.7548 25.894 25.8898 25.713 26.0078C25.654 26.0458 25.592 26.0728 25.532 26.1068C25.405 26.1788 25.278 26.2468 25.146 26.2998C25.124 26.3088 25.103 26.3238 25.081 26.3328V29.8218C29.92 31.3108 33.689 34.9148 35.495 39.4498C35.5 39.4648 35.508 39.4788 35.512 39.4948C36.256 41.3788 36.67 43.4178 36.67 45.5378C36.67 47.1238 36.437 48.6988 35.977 50.2178C35.22 52.8218 33.79 55.2318 31.847 57.1748C31.542 57.4798 31.224 57.7688 30.898 58.0468C30.791 58.1378 30.679 58.2218 30.57 58.3098C30.345 58.4918 30.118 58.6718 29.884 58.8408C29.751 58.9378 29.615 59.0278 29.479 59.1208C29.259 59.2708 29.037 59.4168 28.81 59.5558C28.664 59.6448 28.518 59.7308 28.369 59.8158C28.265 59.8748 28.165 59.9408 28.06 59.9978H56.61C57.519 59.9978 58.259 59.2578 58.259 58.3478L58.26 58.3498ZM51.989 52.0778H38.892C38.339 52.0778 37.892 51.6298 37.892 51.0778C37.892 50.5258 38.339 50.0778 38.892 50.0778H51.989C52.542 50.0778 52.989 50.5258 52.989 51.0778C52.989 51.6298 52.542 52.0778 51.989 52.0778ZM51.989 45.9538H39.73C39.177 45.9538 38.73 45.5058 38.73 44.9538C38.73 44.4018 39.177 43.9538 39.73 43.9538H51.989C52.542 43.9538 52.989 44.4018 52.989 44.9538C52.989 45.5058 52.542 45.9538 51.989 45.9538ZM51.989 39.8288H38.892C38.339 39.8288 37.892 39.3808 37.892 38.8288C37.892 38.2768 38.339 37.8288 38.892 37.8288H51.989C52.542 37.8288 52.989 38.2768 52.989 38.8288C52.989 39.3808 52.542 39.8288 51.989 39.8288ZM51.989 33.7048H35.086C34.533 33.7048 34.086 33.2568 34.086 32.7048C34.086 32.1528 34.533 31.7048 35.086 31.7048H51.989C52.542 31.7048 52.989 32.1528 52.989 32.7048C52.989 33.2568 52.542 33.7048 51.989 33.7048ZM51.989 27.5798H29.375C28.822 27.5798 28.375 27.1318 28.375 26.5798C28.375 26.0278 28.822 25.5798 29.375 25.5798H51.988C52.541 25.5798 52.988 26.0278 52.988 26.5798C52.988 27.1318 52.542 27.5798 51.989 27.5798ZM51.989 21.4558H29.924C29.371 21.4558 28.924 21.0078 28.924 20.4558C28.924 19.9038 29.371 19.4558 29.924 19.4558H51.988C52.541 19.4558 52.988 19.9038 52.988 20.4558C52.988 21.0078 52.542 21.4558 51.989 21.4558Z" fill="#F8CD24"/>
<path id="Vector_5" d="M24.045 24.5298C24.318 24.5198 24.601 24.3938 24.822 24.1838C24.998 23.9968 25.12 23.6938 25.12 23.3898C25.12 22.7668 24.613 22.2598 23.99 22.2598H16.42C16.12 22.2598 15.835 22.3798 15.618 22.5968C15.406 22.8078 15.28 23.1048 15.28 23.3898C15.28 23.9968 15.765 24.5068 16.363 24.5298H24.045Z" fill="#F8CD24"/>
</g>
</svg>
