<svg width="51" height="50" viewBox="0 0 51 50" fill="none" xmlns="http://www.w3.org/2000/svg">
<g id="list (3) 1">
<g id="list">
<path id="Vector" d="M37.4231 9.5H13.5769C12.6283 9.5 11.7185 9.87685 11.0477 10.5477C10.3769 11.2185 10 12.1283 10 13.0769V36.9231C10 37.8717 10.3769 38.7815 11.0477 39.4523C11.7185 40.1231 12.6283 40.5 13.5769 40.5H37.4231C38.3717 40.5 39.2815 40.1231 39.9523 39.4523C40.6231 38.7815 41 37.8717 41 36.9231V13.0769C41 12.1283 40.6231 11.2185 39.9523 10.5477C39.2815 9.87685 38.3717 9.5 37.4231 9.5ZM15.9615 22.6154H18.3462C18.6624 22.6154 18.9656 22.741 19.1892 22.9646C19.4128 23.1882 19.5385 23.4915 19.5385 23.8077V26.1923C19.5385 26.5085 19.4128 26.8118 19.1892 27.0354C18.9656 27.259 18.6624 27.3846 18.3462 27.3846H15.9615C15.6453 27.3846 15.3421 27.259 15.1184 27.0354C14.8948 26.8118 14.7692 26.5085 14.7692 26.1923V23.8077C14.7692 23.4915 14.8948 23.1882 15.1184 22.9646C15.3421 22.741 15.6453 22.6154 15.9615 22.6154ZM14.7692 19.0385V16.6538C14.7692 16.3376 14.8948 16.0344 15.1184 15.8108C15.3421 15.5872 15.6453 15.4615 15.9615 15.4615H18.3462C18.6624 15.4615 18.9656 15.5872 19.1892 15.8108C19.4128 16.0344 19.5385 16.3376 19.5385 16.6538V19.0385C19.5385 19.3547 19.4128 19.6579 19.1892 19.8816C18.9656 20.1052 18.6624 20.2308 18.3462 20.2308H15.9615C15.6453 20.2308 15.3421 20.1052 15.1184 19.8816C14.8948 19.6579 14.7692 19.3547 14.7692 19.0385ZM15.9615 29.7692H18.3462C18.6624 29.7692 18.9656 29.8948 19.1892 30.1184C19.4128 30.3421 19.5385 30.6453 19.5385 30.9615V33.3462C19.5385 33.6624 19.4128 33.9656 19.1892 34.1892C18.9656 34.4128 18.6624 34.5385 18.3462 34.5385H15.9615C15.6453 34.5385 15.3421 34.4128 15.1184 34.1892C14.8948 33.9656 14.7692 33.6624 14.7692 33.3462V30.9615C14.7692 30.6453 14.8948 30.3421 15.1184 30.1184C15.3421 29.8948 15.6453 29.7692 15.9615 29.7692ZM23.1154 30.9615H35.0385C35.3547 30.9615 35.658 31.0872 35.8816 31.3108C36.1052 31.5344 36.2308 31.8376 36.2308 32.1538C36.2308 32.4701 36.1052 32.7733 35.8816 32.9969C35.658 33.2205 35.3547 33.3462 35.0385 33.3462H23.1154C22.7992 33.3462 22.4959 33.2205 22.2723 32.9969C22.0487 32.7733 21.9231 32.4701 21.9231 32.1538C21.9231 31.8376 22.0487 31.5344 22.2723 31.3108C22.4959 31.0872 22.7992 30.9615 23.1154 30.9615ZM21.9231 25C21.9231 24.6838 22.0487 24.3805 22.2723 24.1569C22.4959 23.9333 22.7992 23.8077 23.1154 23.8077H35.0385C35.3547 23.8077 35.658 23.9333 35.8816 24.1569C36.1052 24.3805 36.2308 24.6838 36.2308 25C36.2308 25.3162 36.1052 25.6195 35.8816 25.8431C35.658 26.0667 35.3547 26.1923 35.0385 26.1923H23.1154C22.7992 26.1923 22.4959 26.0667 22.2723 25.8431C22.0487 25.6195 21.9231 25.3162 21.9231 25ZM35.0385 19.0385H23.1154C22.7992 19.0385 22.4959 18.9128 22.2723 18.6892C22.0487 18.4656 21.9231 18.1624 21.9231 17.8462C21.9231 17.5299 22.0487 17.2267 22.2723 17.0031C22.4959 16.7795 22.7992 16.6538 23.1154 16.6538H35.0385C35.3547 16.6538 35.658 16.7795 35.8816 17.0031C36.1052 17.2267 36.2308 17.5299 36.2308 17.8462C36.2308 18.1624 36.1052 18.4656 35.8816 18.6892C35.658 18.9128 35.3547 19.0385 35.0385 19.0385Z" fill="#F8CD24"/>
</g>
</g>
</svg>
