<svg width="42" height="42" viewBox="0 0 42 42" fill="none" xmlns="http://www.w3.org/2000/svg">
<g id="mail (4) 1" clip-path="url(#clip0_100_693)">
<g id="Group">
<g id="Group_2">
<path id="Vector" d="M41.6301 8.34424L28.8923 20.9999L41.6301 33.6556C41.8603 33.1744 42 32.6423 42 32.0742V9.92572C42 9.35749 41.8603 8.82552 41.6301 8.34424Z" fill="#F8CD24"/>
</g>
</g>
<g id="Group_3">
<g id="Group_4">
<path id="Vector_2" d="M38.3086 6.23438H3.6914C3.12317 6.23438 2.5912 6.37407 2.10992 6.60434L18.3901 22.8025C19.8296 24.242 22.1704 24.242 23.6099 22.8025L39.8901 6.60434C39.4088 6.37407 38.8768 6.23438 38.3086 6.23438Z" fill="#F8CD24"/>
</g>
</g>
<g id="Group_5">
<g id="Group_6">
<path id="Vector_3" d="M0.369961 8.34424C0.139699 8.82552 0 9.35749 0 9.92572V32.0742C0 32.6424 0.139699 33.1744 0.369961 33.6556L13.1077 20.9999L0.369961 8.34424Z" fill="#F8CD24"/>
</g>
</g>
<g id="Group_7">
<g id="Group_8">
<path id="Vector_4" d="M27.1523 22.7397L25.3499 24.5422C22.9514 26.9407 19.0486 26.9407 16.65 24.5422L14.8477 22.7397L2.10992 35.3954C2.5912 35.6257 3.12317 35.7654 3.6914 35.7654H38.3086C38.8768 35.7654 39.4088 35.6257 39.8901 35.3954L27.1523 22.7397Z" fill="#F8CD24"/>
</g>
</g>
</g>
<defs>
<clipPath id="clip0_100_693">
<rect width="42" height="42" fill="white"/>
</clipPath>
</defs>
</svg>
