<svg width="44" height="44" viewBox="0 0 44 44" fill="none" xmlns="http://www.w3.org/2000/svg">
<g id="map (1) 1" clip-path="url(#clip0_100_651)">
<g id="Group">
<g id="Group_2">
<path id="Vector" d="M34.9766 20.7109C30.0016 20.7109 25.9531 24.7594 25.9531 29.7344C25.9531 31.6339 26.5385 33.4518 27.6614 35.0115L33.9456 43.4839C34.1885 43.8086 34.5712 44 34.9766 44H34.9779C35.3832 44 35.7659 43.8074 36.0088 43.4826L42.5473 34.6388C43.4978 33.1786 44 31.4829 44 29.7344C44 24.7594 39.9516 20.7109 34.9766 20.7109ZM34.9766 33.6016C32.8441 33.6016 31.1094 31.8668 31.1094 29.7344C31.1094 27.6019 32.8441 25.8672 34.9766 25.8672C37.109 25.8672 38.8438 27.6019 38.8438 29.7344C38.8438 31.8668 37.109 33.6016 34.9766 33.6016Z" fill="#F8CD24"/>
</g>
</g>
<g id="Group_3">
<g id="Group_4">
<path id="Vector_2" d="M1.9525 0.183917C1.55341 -0.0540435 1.05875 -0.0615201 0.653383 0.167589C0.249219 0.396613 0 0.824667 0 1.28916V27.1563C0 27.6095 0.237961 28.0287 0.625625 28.2616L12.9766 35.6205V6.74705L1.9525 0.183917Z" fill="#F8CD24"/>
</g>
</g>
<g id="Group_5">
<g id="Group_6">
<path id="Vector_3" d="M40.7963 7.91802L28.5312 0.558594V20.0966C30.3764 18.8586 32.5925 18.1326 34.9766 18.1326C37.3606 18.1326 39.5767 18.8586 41.4219 20.0966V9.02327C41.4219 8.57012 41.1839 8.15091 40.7963 7.91802Z" fill="#F8CD24"/>
</g>
</g>
<g id="Group_7">
<g id="Group_8">
<path id="Vector_4" d="M25.9531 0.558594L15.5547 6.74661V35.6202L23.468 30.9239C23.4272 30.5288 23.375 30.1354 23.375 29.7341C23.375 26.9999 24.3651 24.5171 25.9531 22.532V0.558594Z" fill="#F8CD24"/>
</g>
</g>
</g>
<defs>
<clipPath id="clip0_100_651">
<rect width="44" height="44" fill="white"/>
</clipPath>
</defs>
</svg>
