<svg width="40" height="40" viewBox="0 0 40 40" fill="none" xmlns="http://www.w3.org/2000/svg">
<g clip-path="url(#clip0_100_713)">
<path d="M16.5635 23.4366C12.7455 19.6187 11.8835 15.8007 11.689 14.2711C11.6346 13.8481 11.7802 13.424 12.0828 13.1235L15.1724 10.0352C15.6269 9.58101 15.7076 8.87314 15.3669 8.32832L10.4476 0.689704C10.0707 0.0864269 9.29688 -0.131302 8.66071 0.186945L0.76347 3.90626C0.249028 4.15957 -0.0535596 4.70615 0.00484963 5.2766C0.418643 9.20763 2.13244 18.8711 11.629 28.3683C21.1255 37.8656 30.7876 39.5787 34.7207 39.9925C35.2912 40.0509 35.8377 39.7483 36.0911 39.2338L39.8104 31.3366C40.1274 30.7018 39.9111 29.93 39.3104 29.5525L31.6717 24.6345C31.1272 24.2935 30.4194 24.3736 29.9649 24.8276L26.8766 27.9173C26.5761 28.2199 26.1519 28.3654 25.729 28.3111C24.1993 28.1166 20.3814 27.2545 16.5635 23.4366Z" fill="#F8CD24"/>
<path d="M31.7242 21.3792C30.9624 21.3792 30.3449 20.7617 30.3449 19.9999C30.3384 14.2893 25.7106 9.66157 20 9.6551C19.2383 9.6551 18.6207 9.03757 18.6207 8.27579C18.6207 7.51402 19.2383 6.89648 20 6.89648C27.2336 6.90447 33.0955 12.7664 33.1035 19.9999C33.1035 20.7617 32.4859 21.3792 31.7242 21.3792Z" fill="#F8CD24"/>
<path d="M38.6207 21.3793C37.859 21.3793 37.2414 20.7618 37.2414 20C37.2308 10.4823 29.5178 2.76926 20 2.75862C19.2383 2.75862 18.6207 2.14108 18.6207 1.37931C18.6207 0.617538 19.2383 0 20 0C31.0407 0.0121627 39.9879 8.95935 40 20C40 20.3658 39.8547 20.7167 39.5961 20.9753C39.3374 21.234 38.9865 21.3793 38.6207 21.3793Z" fill="#F8CD24"/>
</g>
<defs>
<clipPath id="clip0_100_713">
<rect width="40" height="40" fill="white"/>
</clipPath>
</defs>
</svg>
