<svg width="62" height="62" viewBox="0 0 62 62" fill="none" xmlns="http://www.w3.org/2000/svg">
<g id="scientist 1" clip-path="url(#clip0_107_613)">
<g id="Group">
<g id="Group_2">
<path id="Vector" d="M61.9999 16.9639C61.9999 15.1409 60.3993 13.6631 58.5763 13.6631H52.5321C50.7744 13.6631 49.3381 15.0373 49.2374 16.7698L55.6021 15.471L48.8997 18.8227L43.0001 18.2271C43.0001 16.1809 43.0001 16.6247 43.0001 14.5534C43.5456 14.5534 43.988 14.111 43.988 13.5655C43.988 13.02 43.5456 12.5776 43.0001 12.5776H39.7072C39.1616 12.5776 38.7193 13.02 38.7193 13.5655C38.7193 14.111 39.1616 14.5534 39.7072 14.5534C39.7072 15.746 39.7072 16.6242 39.7072 17.9079C38.4213 17.9074 37.3185 18.8802 37.1865 20.1868C37.0459 21.5789 38.0607 22.8214 39.4529 22.9619L39.7073 22.9874V24.038C39.7073 24.9446 40.4467 25.6846 41.3538 25.6846C42.2547 25.6846 43.0003 24.9498 43.0003 24.038V23.3198L49.1218 23.9378C49.5911 23.9851 50.0731 23.9011 50.5094 23.683L57.8688 20.0027L51.4382 25.5402C50.944 25.9659 50.3204 26.1437 49.7188 26.0851L49.3631 26.036V58.0204C49.3629 59.5964 50.6405 60.8742 52.2165 60.8743H52.2166C53.7925 60.8743 55.0702 59.5968 55.0703 58.0208L55.072 35.4086H56.2324C56.2272 35.5223 56.2924 57.9148 56.2929 58.0286C56.2973 59.602 57.574 60.8742 59.1463 60.8742C59.149 60.8742 59.152 60.8742 59.1545 60.8742C60.7306 60.8697 62.0046 59.5884 62.0001 58.0125V16.9639H61.9999Z" fill="#F8CD24"/>
</g>
</g>
<g id="Group_3">
<g id="Group_4">
<path id="Vector_2" d="M55.9132 11.627C58.8131 11.627 61.164 9.27613 61.164 6.37622C61.164 3.47632 58.8131 1.12549 55.9132 1.12549C53.0133 1.12549 50.6625 3.47632 50.6625 6.37622C50.6625 9.27613 53.0133 11.627 55.9132 11.627Z" fill="#F8CD24"/>
</g>
</g>
<g id="Group_5">
<g id="Group_6">
<path id="Vector_3" d="M27.7579 57.3519L24.4206 42.5722C24.2125 41.651 23.4927 40.9007 22.6329 40.5508C22.6372 55.8582 22.6329 57.7113 22.6329 59.6443C23.2864 60.5604 24.4395 61.0377 25.5949 60.7768C27.1378 60.4283 28.1063 58.8949 27.7579 57.3519Z" fill="#F8CD24"/>
</g>
</g>
<g id="Group_7">
<g id="Group_8">
<path id="Vector_4" d="M14.7118 21.5678C17.6214 21.5678 19.9801 19.2091 19.9801 16.2995C19.9801 13.3899 17.6214 11.0312 14.7118 11.0312C11.8022 11.0312 9.44348 13.3899 9.44348 16.2995C9.44348 19.2091 11.8022 21.5678 14.7118 21.5678Z" fill="#F8CD24"/>
</g>
</g>
<g id="Group_9">
<g id="Group_10">
<path id="Vector_5" d="M43.9134 34.8919C42.7632 34.8919 34.1174 34.8919 32.526 34.8919C33.0676 34.7284 33.4621 34.2261 33.4621 33.6312C33.4621 32.9113 32.8768 32.3141 32.145 32.3141H28.1666C26.094 32.3141 24.3076 31.0687 23.5135 29.2877L25.0597 26.4864L26.3967 27.9939C26.5531 28.1704 26.8231 28.1865 26.9995 28.03L28.8241 26.4118C29.0006 26.2554 29.0167 25.9855 28.8602 25.809L26.0184 22.6047C26.6717 22.2995 27.3992 22.1279 28.1666 22.1279C29.3436 22.1279 30.4913 22.5385 31.3985 23.2844C31.9603 23.7462 32.7904 23.6652 33.2524 23.1033C33.7144 22.5414 33.6334 21.7113 33.0714 21.2494C31.6942 20.1172 29.9524 19.4934 28.1666 19.4934C26.7266 19.4934 25.3779 19.8906 24.2225 20.5794L21.974 18.044C21.8175 17.8676 21.5476 17.8515 21.3712 18.0079L19.5466 19.6261C19.3701 19.7826 19.354 20.0525 19.5105 20.2289L21.7118 22.7112C21.5826 22.8913 21.8551 22.4138 17.9689 29.4541L10.7295 24.6591L14.7652 26.2177C14.8995 24.4096 13.6391 22.7618 11.8156 22.4503L9.75275 22.0976C7.76754 21.7583 5.73099 22.2633 4.13425 23.4907C2.53764 24.7181 1.5259 26.5564 1.34317 28.562L0.363886 39.1673C0.178129 41.178 1.53002 42.9492 3.41338 43.3773H1.976C0.884588 43.3774 0 44.2621 0 45.3533C0 46.4445 0.884588 47.329 1.97576 47.329H6.19672V55.1676H4.60192C4.16525 55.1676 3.74651 55.341 3.4376 55.6497L1.04528 58.042C0.402273 58.685 0.402273 59.7275 1.04528 60.3705C1.68829 61.0135 2.7309 61.0135 3.37379 60.3705L5.28392 58.4604H10.4023L12.3123 60.3705C12.9552 61.0133 13.9978 61.0135 14.6408 60.3705C15.2838 59.7275 15.2838 58.685 14.6408 58.042L12.2485 55.6497C11.9397 55.341 11.521 55.1676 11.0842 55.1676H9.48961V47.329H14.8034C14.8034 46.5628 14.8034 40.8756 14.8034 40.112C14.2028 39.5977 13.7462 38.9202 13.5037 38.1475L12.7752 37.9593L13.4363 34.0912L8.69754 29.0392C18.3248 35.4157 17.4204 34.8181 17.5376 34.8919H17.1745C16.0758 34.8919 15.1987 35.7875 15.1987 36.8677C15.1987 37.8234 15.8775 38.6206 16.7793 38.8037C16.7793 39.735 16.7793 58.1389 16.7793 58.8837C16.7793 59.9748 17.664 60.8594 18.7551 60.8594C19.8461 60.8594 20.7308 59.9748 20.7308 58.8837C20.7329 41.2684 20.7354 38.8256 20.7354 38.8256C20.7354 38.8256 28.7656 38.8231 40.4887 38.8256V58.8838C40.4887 59.975 41.3733 60.8596 42.4645 60.8596C43.5556 60.8596 44.4402 59.975 44.4402 58.8838V38.7703C45.2753 38.5395 45.8891 37.7762 45.8891 36.8677C45.8891 35.7765 45.0045 34.8919 43.9134 34.8919ZM20.079 34.8919C20.4171 34.679 20.7007 34.3833 20.8977 34.0264L22.0513 31.9367C22.2626 32.2102 22.4908 32.4697 22.7362 32.7122C22.5047 32.9496 22.3616 33.2735 22.3616 33.6312C22.3616 34.2261 22.7563 34.7284 23.2978 34.8919H20.079Z" fill="#F8CD24"/>
</g>
</g>
</g>
<defs>
<clipPath id="clip0_107_613">
<rect width="62" height="62" fill="white"/>
</clipPath>
</defs>
</svg>
