<svg width="51" height="50" viewBox="0 0 51 50" fill="none" xmlns="http://www.w3.org/2000/svg">
<path d="M43 41.2C43 42.28 42.28 43 41.2 43H8.8C7.72 43 7 42.1 7 41.2V8.8C7 7.9 7.9 7 8.8 7C9.88 7 10.6 7.9 10.6 8.8V19.6H14.2V16C13.3 16 12.4 15.28 12.4 14.2C12.4 13.3 13.3 12.4 14.2 12.4H23.2C24.28 12.4 25 13.3 25 14.2C25 15.28 24.28 16 23.2 16V19.6H28.6V16C27.7 16 26.8 15.28 26.8 14.2C26.8 13.3 27.7 12.4 28.6 12.4H37.6C38.68 12.4 39.4 13.3 39.4 14.2C39.4 15.28 38.68 16 37.6 16V19.6H41.2C42.28 19.6 43 20.5 43 21.4C43 22.48 42.28 23.2 41.2 23.2H37.6V31.3C37.6 33.82 35.62 35.8 33.1 35.8C30.58 35.8 28.6 33.82 28.6 31.3V23.2H23.2V31.3C23.2 33.82 21.22 35.8 18.7 35.8C16.18 35.8 14.2 33.82 14.2 31.3V23.2H10.6V39.4H41.2C42.28 39.4 43 40.3 43 41.2Z" fill="#F8CD24"/>
</svg>
