<svg width="50" height="50" viewBox="0 0 50 50" fill="none" xmlns="http://www.w3.org/2000/svg">
<g id="virtual-lab 1" clip-path="url(#clip0_107_583)">
<g id="Group">
<path id="Vector" d="M29.576 2.92969H40.4632C41.2722 2.92969 41.928 2.27383 41.928 1.46484C41.928 0.655859 41.2722 0 40.4632 0H29.576C28.767 0 28.1111 0.655859 28.1111 1.46484C28.1111 2.27383 28.767 2.92969 29.576 2.92969Z" fill="#F8CD24"/>
<path id="Vector_2" d="M8.99268 2.92969H20.4351C21.244 2.92969 21.8999 2.27383 21.8999 1.46484C21.8999 0.655859 21.244 0 20.4351 0H8.99268C8.18369 0 7.52783 0.655859 7.52783 1.46484C7.52783 2.27383 8.18369 2.92969 8.99268 2.92969Z" fill="#F8CD24"/>
<path id="Vector_3" d="M37.6914 22.7466C37.1644 22.5105 36.8252 21.9871 36.8252 21.4097V5.82471H33.2142V21.5869C33.2142 22.1355 32.9076 22.6382 32.4198 22.8893C31.5268 23.349 30.7817 24.0049 30.2258 24.7891H40.176C39.5569 23.9155 38.7077 23.2016 37.6914 22.7466Z" fill="#F8CD24"/>
<path id="Vector_4" d="M29.1079 28.3117C29.1079 31.6731 31.8426 34.4079 35.2041 34.4079C38.5656 34.4079 41.3003 31.6731 41.3003 28.3117C41.3003 28.1123 41.2896 27.9146 41.2704 27.7188H29.137C29.1182 27.9145 29.1079 28.1122 29.1079 28.3117Z" fill="#F8CD24"/>
<path id="Vector_5" d="M48.535 8.46143H39.7548V20.5181C42.5017 22.1236 44.23 25.0865 44.23 28.3118C44.23 33.2887 40.1811 37.3377 35.2041 37.3377C30.2272 37.3377 26.1782 33.2887 26.1782 28.3118C26.1782 25.2248 27.7305 22.4019 30.2844 20.7451V8.46143H19.731V32.3099C19.731 35.0822 17.4755 37.3376 14.7032 37.3376C11.9309 37.3376 9.67549 35.0821 9.67549 32.3099V8.46143H1.46504C0.656058 8.46143 0.000198364 9.11729 0.000198364 9.92627V41.7096C0.000198364 42.5186 0.656058 43.1744 1.46504 43.1744H13.6916C14.785 43.1107 15.7317 44.0523 15.7126 45.1459C15.7231 46.2563 14.7997 47.1639 13.6916 47.0702H9.31934C8.53057 47.0702 7.85186 47.6764 7.81475 48.4642C7.7751 49.3055 8.44541 49.9999 9.27793 49.9999H40.6807C41.4694 49.9999 42.1481 49.3937 42.1853 48.6059C42.2249 47.7646 41.5546 47.0702 40.7221 47.0702H36.3084C35.2001 47.1637 34.2771 46.2565 34.2874 45.1459C34.2683 44.0525 35.2152 43.1104 36.3084 43.1744H48.535C49.3439 43.1744 49.9998 42.5186 49.9998 41.7096V9.92627C49.9998 9.11729 49.3439 8.46143 48.535 8.46143Z" fill="#F8CD24"/>
<path id="Vector_6" d="M12.6052 5.82471H16.8014V24.6396H12.6052V5.82471Z" fill="#F8CD24"/>
<path id="Vector_7" d="M12.6052 32.31C12.6052 33.4669 13.5464 34.408 14.7032 34.408C15.8602 34.408 16.8013 33.4668 16.8013 32.31V27.5693H12.6051L12.6052 32.31Z" fill="#F8CD24"/>
</g>
</g>
<defs>
<clipPath id="clip0_107_583">
<rect width="50" height="50" fill="white"/>
</clipPath>
</defs>
</svg>
