<svg width="50" height="50" viewBox="0 0 50 50" fill="none" xmlns="http://www.w3.org/2000/svg">
<g id="wallet-filled-money-tool 1">
<g id="Group">
<g id="Group_2">
<path id="Vector" d="M16.478 15.4879L29.2349 12.0058L28.5594 10.6403C28.1174 9.75273 27.0393 9.38619 26.1517 9.82819L14.7316 15.4879H16.478Z" fill="#F8CD24"/>
<path id="Vector_2" d="M33.1949 12.1069C33.0369 12.1069 32.8787 12.1285 32.7206 12.1716L29.7237 12.9909L20.571 15.4884H30.9598H35.4876L34.927 13.4329C34.7114 12.6316 33.9855 12.1069 33.1949 12.1069Z" fill="#F8CD24"/>
<path id="Vector_3" d="M37.3598 16.7461H36.9501H36.3932H35.8362H31.5851H15.9642H13.9159H12.191H11.8712H10.8003C10.2326 16.7461 9.72588 17.0084 9.39528 17.4217C9.24436 17.6121 9.12937 17.8313 9.06468 18.0721C9.02515 18.223 9 18.3811 9 18.5428V18.7584V20.8067V38.5622C9 39.554 9.80494 40.3589 10.7967 40.3589H37.3562C38.348 40.3589 39.1529 39.554 39.1529 38.5622V33.5492H28.4911C26.8057 33.5492 25.4366 32.1801 25.4366 30.4948V28.849V28.292V27.735V26.4988C25.4366 25.6723 25.7672 24.9213 26.3026 24.3715C26.777 23.8828 27.413 23.5522 28.1245 23.4695C28.2431 23.4552 28.3653 23.4479 28.4875 23.4479H37.6581H38.215H38.772H39.1529V18.5428C39.1565 17.551 38.3516 16.7461 37.3598 16.7461Z" fill="#F8CD24"/>
<path id="Vector_4" d="M40.4143 25.1655C40.2346 25.0002 40.0226 24.8745 39.7854 24.7918C39.6021 24.7308 39.4081 24.6948 39.2032 24.6948H39.1565H39.1206H38.5636H36.5548H28.4911C27.4992 24.6948 26.6943 25.4997 26.6943 26.4916V27.3863V27.9433V28.5003V30.4911C26.6943 31.4829 27.4992 32.2878 28.4911 32.2878H39.1565H39.2032C39.4081 32.2878 39.6021 32.2519 39.7854 32.1908C40.0226 32.1117 40.2346 31.9824 40.4143 31.8171C40.7736 31.4901 41 31.0157 41 30.4911V26.4916C41 25.9669 40.7736 25.4925 40.4143 25.1655ZM32.2427 28.8489C32.2427 29.3448 31.8402 29.7472 31.3443 29.7472H30.7478C30.2519 29.7472 29.8494 29.3448 29.8494 28.8489V28.2523C29.8494 27.9649 29.9824 27.7097 30.1944 27.548C30.3489 27.4294 30.5394 27.354 30.7478 27.354H30.8987H31.3443C31.8402 27.354 32.2427 27.7564 32.2427 28.2523V28.8489Z" fill="#F8CD24"/>
</g>
</g>
</g>
</svg>
