<?xml version="1.0" encoding="utf-8"?><svg viewBox="0 0 33 24" xmlns="http://www.w3.org/2000/svg" xmlns:xlink="http://www.w3.org/1999/xlink"><style>:root>svg{display:none}:root>svg:target{display:block}</style><svg viewBox="0 0 17 16" id="arrowRight" xmlns="http://www.w3.org/2000/svg"><path d="M16.707 8.707a1 1 0 000-1.414L10.343.929A1 1 0 108.93 2.343L14.586 8l-5.657 5.657a1 1 0 001.414 1.414l6.364-6.364zM0 9h16V7H0v2z"/></svg><svg viewBox="0 0 33 22" id="burger" xmlns="http://www.w3.org/2000/svg"><path d="M0 0h29v2H0zM0 10h33v2H0zM0 20h29v2H0z"/></svg><svg viewBox="0 0 22 22" id="calc" xmlns="http://www.w3.org/2000/svg"><g clip-path="url(#cclip0_96_1326)"><path d="M11 22c6.075 0 11-4.925 11-11S17.075 0 11 0 0 4.925 0 11s4.925 11 11 11z"/><path d="M7.563 6.188h.687v3.437h-.688V6.187z"/><path d="M6.188 7.563h3.437v.687H6.187v-.688zM12.375 14.438h3.438v.687h-3.438v-.688zM12.375 13.063h3.438v.687h-3.438v-.688zM6.186 15.326l9.138-9.138.486.486-9.138 9.138-.486-.486z"/></g><defs><clipPath id="cclip0_96_1326"><path d="M0 0h22v22H0z"/></clipPath></defs></svg><svg viewBox="0 0 22 22" id="sendMail" xmlns="http://www.w3.org/2000/svg"><path d="M20.116 8.759a1.732 1.732 0 00-1.746-.433l-.495.15V3.432a2.069 2.069 0 00-2.063-2.063H3.438a2.069 2.069 0 00-2.063 2.063v9.625c0 1.134.928 2.062 2.063 2.062h7.26l-.193 1.533a1.51 1.51 0 00.44 1.272c.289.289.674.447 1.08.447.061 0 .13 0 .192-.014l1.78-.22.523 1.361a1.709 1.709 0 001.622 1.114h.062a1.73 1.73 0 001.61-1.23l2.735-8.89a1.747 1.747 0 00-.433-1.746v.014zM2.75 13.062V3.438a.69.69 0 01.688-.688h12.374a.69.69 0 01.688.688v5.465l-7.02 2.159a1.721 1.721 0 00-1.23 1.602c-.014.405.11.777.33 1.08H3.437a.69.69 0 01-.687-.688v.007zm9.295 3.94c-.062 0-.11-.02-.13-.048a.153.153 0 01-.049-.13l.179-1.445 1.038.4.399 1.037-1.444.179.007.007zm7.184-6.903l-2.736 8.89c-.069.227-.261.254-.337.261a.358.358 0 01-.357-.234l-1.382-3.588 1.767-1.767a.685.685 0 10-.97-.97l-1.767 1.767-3.588-1.382a.344.344 0 01-.234-.357c.007-.083.034-.268.261-.337l8.89-2.736a.34.34 0 01.364.09.35.35 0 01.09.363z"/><path d="M11.275 7.872l4.262-3.197a.69.69 0 00.138-.962.69.69 0 00-.963-.138L10.45 6.772a1.382 1.382 0 01-1.65 0L4.537 3.575a.69.69 0 00-.962.138.69.69 0 00.137.962l4.263 3.197a2.744 2.744 0 001.65.543c.584 0 1.162-.179 1.65-.543z"/></svg><svg viewBox="0 0 26 22" id="telegram" xmlns="http://www.w3.org/2000/svg"><path d="M1.21 9.271L24.269.706c1.07-.372 2.005.252 1.659 1.81l.002-.001-3.926 17.819c-.291 1.263-1.07 1.57-2.16.975l-5.98-4.245-2.883 2.677c-.32.307-.588.566-1.206.566l.425-5.862 11.08-9.643c.482-.41-.108-.64-.743-.233L6.843 12.875.94 11.1c-1.282-.392-1.31-1.235.27-1.83z"/></svg><svg viewBox="0 0 19 19" id="wallClock" xmlns="http://www.w3.org/2000/svg"><g clip-path="url(#fclip0_96_1343)"><path d="M17.011 14.127a.742.742 0 00-1.038.152c-.135.181-.279.358-.428.527a.742.742 0 001.112.984c.177-.2.347-.41.507-.625a.742.742 0 00-.153-1.038zM18.252 10.646a.742.742 0 00-.883.567c-.048.22-.106.441-.172.657a.742.742 0 101.418.438c.079-.256.148-.518.205-.779a.742.742 0 00-.568-.883zM13.439 16.504a8.05 8.05 0 01-.607.305.742.742 0 10.611 1.353c.244-.11.486-.232.72-.362a.742.742 0 00-.724-1.296zM8.758 3.563v5.63l-2.722 2.721a.742.742 0 101.05 1.05l2.939-2.94a.742.742 0 00.217-.524V3.562a.742.742 0 10-1.484 0z"/><path d="M18.258 1.596a.742.742 0 00-.742.742v2.06A9.522 9.522 0 009.5 0a9.438 9.438 0 00-6.718 2.782A9.438 9.438 0 000 9.5c0 2.537.988 4.923 2.782 6.718A9.438 9.438 0 009.5 19h.037c.268 0 .538-.011.803-.034a.742.742 0 10-.124-1.479 8.165 8.165 0 01-.679.029H9.5c-4.42 0-8.016-3.596-8.016-8.016S5.08 1.484 9.5 1.484a8.035 8.035 0 016.9 3.934h-2.04a.742.742 0 100 1.484h2.265a2.36 2.36 0 001.302-.39A2.374 2.374 0 0019 4.528v-2.19a.742.742 0 00-.742-.741z"/></g><defs><clipPath id="fclip0_96_1343"><path d="M0 0h19v19H0z"/></clipPath></defs></svg><svg viewBox="0 0 24 24" id="whatsapp" xmlns="http://www.w3.org/2000/svg"><g><path d="M.2 23.425l1.639-5.82a11.649 11.649 0 01-1.609-5.92C.23 5.242 5.472 0 11.915 0 18.358 0 23.6 5.242 23.6 11.685c0 6.443-5.242 11.685-11.685 11.685a11.67 11.67 0 01-5.713-1.49L.2 23.425zm6.31-3.67l.357.218a9.683 9.683 0 005.048 1.415c5.35 0 9.703-4.353 9.703-9.703s-4.353-9.703-9.703-9.703-9.703 4.353-9.703 9.703c0 1.864.53 3.675 1.532 5.235l.241.375-.944 3.352 3.468-.893z"/><path d="M8.633 6.246l-.759-.041a.917.917 0 00-.651.223c-.368.32-.956.936-1.136 1.74-.27 1.2.147 2.668 1.223 4.136 1.077 1.468 3.084 3.818 6.632 4.82 1.143.324 2.043.106 2.737-.338.55-.351.928-.916 1.065-1.554l.121-.565a.393.393 0 00-.22-.439l-2.562-1.181a.393.393 0 00-.476.117l-1.006 1.304a.288.288 0 01-.323.096c-.69-.242-2.997-1.209-4.263-3.648a.29.29 0 01.037-.324l.961-1.112a.393.393 0 00.064-.412L8.972 6.484a.393.393 0 00-.34-.238z"/></g></svg></svg>