<?xml version="1.0" encoding="utf-8"?><svg viewBox="0 0 64 64" xmlns="http://www.w3.org/2000/svg" xmlns:xlink="http://www.w3.org/1999/xlink"><style>:root>svg{display:none}:root>svg:target{display:block}</style><svg fill="none" viewBox="0 0 58 58" id="arrowTab" xmlns="http://www.w3.org/2000/svg"><path d="M40 25L29 36 18 25" stroke="#89BD42" stroke-width="3"/><circle cx="29" cy="29" r="27.5" transform="rotate(90 29 29)" stroke="url(#apaint0_linear_96_2154)" stroke-width="3"/><defs><linearGradient id="apaint0_linear_96_2154" x1="6.868" y1="8.395" x2="58" y2="50.368" gradientUnits="userSpaceOnUse"><stop stop-color="#89BD42"/><stop offset="1" stop-color="#B1E56A"/></linearGradient></defs></svg><svg fill="none" viewBox="0 0 22 22" id="calc" xmlns="http://www.w3.org/2000/svg"><g clip-path="url(#bclip0_96_1326)"><path d="M11 22c6.075 0 11-4.925 11-11S17.075 0 11 0 0 4.925 0 11s4.925 11 11 11z" fill="#fff"/><path d="M7.563 6.188h.687v3.437h-.688V6.187z" fill="#2A783E"/><path d="M6.188 7.563h3.437v.687H6.187v-.688zM12.375 14.438h3.438v.687h-3.438v-.688zM12.375 13.063h3.438v.687h-3.438v-.688zM6.186 15.326l9.138-9.138.486.486-9.138 9.138-.486-.486z" fill="#2A783E"/></g><defs><clipPath id="bclip0_96_1326"><path fill="#fff" d="M0 0h22v22H0z"/></clipPath></defs></svg><svg fill="none" viewBox="0 0 33 32" id="calcBlue" xmlns="http://www.w3.org/2000/svg"><g clip-path="url(#cclip0_2067_35)"><path d="M16.5 32c8.837 0 16-7.163 16-16s-7.163-16-16-16S.5 7.163.5 16s7.163 16 16 16z" fill="#fff"/><path d="M11.5 9h1v5h-1V9z" fill="#70D1DE"/><path d="M9.5 11h5v1h-5v-1zM18.5 21h5v1h-5v-1zM18.5 19h5v1h-5v-1zM9.498 22.291L22.79 9.002l.707.707-13.29 13.29-.708-.707z" fill="#70D1DE"/></g><defs><clipPath id="cclip0_2067_35"><path fill="#fff" transform="translate(.5)" d="M0 0h32v32H0z"/></clipPath></defs></svg><svg fill="none" viewBox="0 0 18 14" id="checkboxMark" xmlns="http://www.w3.org/2000/svg"><path d="M2 7l4.5 4.5 9-9" stroke="#89BD42" stroke-width="4" stroke-linecap="round" stroke-linejoin="round"/></svg><svg fill="none" viewBox="0 0 50 50" id="checked" xmlns="http://www.w3.org/2000/svg"><path d="M43.077 22.76l-2.592-2.59c-.615-.616-1.119-1.831-1.119-2.703v-3.664a3.176 3.176 0 00-3.167-3.169h-3.666c-.87 0-2.088-.505-2.703-1.12l-2.59-2.59a3.176 3.176 0 00-4.48 0l-2.59 2.592c-.616.616-1.834 1.12-2.703 1.12h-3.665a3.176 3.176 0 00-3.167 3.167v3.664c0 .869-.504 2.088-1.119 2.703l-2.592 2.59a3.177 3.177 0 000 4.481l2.592 2.591c.616.616 1.12 1.834 1.12 2.703V36.2a3.177 3.177 0 003.166 3.167h3.665c.87 0 2.087.504 2.703 1.119l2.59 2.592a3.178 3.178 0 004.48 0l2.59-2.593c.616-.615 1.833-1.118 2.703-1.118H36.2a3.176 3.176 0 003.167-3.167v-3.665c0-.872.505-2.088 1.12-2.703l2.591-2.59a3.18 3.18 0 000-4.481zm-20.59 9.366l-6.988-6.988 2.24-2.239 4.748 4.748 9.774-9.772 2.239 2.239-12.014 12.012z" fill="#F8CD24"/></svg><svg fill="none" viewBox="0 0 52 52" id="lab" xmlns="http://www.w3.org/2000/svg"><path d="M20.258 11.781H6.852a1.523 1.523 0 00-.508 2.959v8.518h14.422V14.74a1.523 1.523 0 00-.508-2.959zM22.8 3.047h1.02v16.58l-.007.003v12.058h.036c.933 0 1.735.353 2.38.636.442.195.86.379 1.151.379.292 0 .71-.184 1.152-.379.645-.283 1.447-.637 2.38-.637.933 0 1.735.354 2.38.637.442.195.86.379 1.151.379.292 0 .71-.184 1.152-.379.644-.283 1.447-.637 2.38-.637.933 0 1.735.354 2.38.637.441.195.86.379 1.15.379.293 0 .71-.184 1.153-.379.644-.283 1.446-.637 2.38-.637.453 0 .883.065 1.292.162a16.604 16.604 0 00-2.975-6.616 16.672 16.672 0 00-7.347-5.606V3.047h1.02a1.523 1.523 0 000-3.047H22.8a1.523 1.523 0 100 3.047zm10.513 22.75c.839 0 1.523.684 1.523 1.523 0 .84-.684 1.524-1.523 1.524-.84 0-1.524-.685-1.524-1.524s.685-1.523 1.524-1.523zM46.671 35.163c-.593-.228-1.151-.429-1.634-.429-.292 0-.71.184-1.151.379-.645.284-1.447.637-2.38.637-.933 0-1.735-.353-2.38-.637-.442-.195-.86-.379-1.152-.379-.291 0-.71.184-1.151.379-.645.284-1.447.637-2.38.637-.933 0-1.735-.353-2.38-.637-.442-.195-.86-.379-1.151-.379-.292 0-.71.184-1.152.379-.645.284-1.447.637-2.38.637-.932 0-1.735-.353-2.38-.637-.441-.195-.86-.379-1.15-.379l-.037.002v10.052c0 1.97-.558 3.81-1.524 5.374A16.654 16.654 0 0029.914 52c9.24 0 16.758-7.517 16.758-16.758l-.001-.078zM28.84 40.93c-.84 0-1.523-.685-1.523-1.524s.684-1.523 1.523-1.523c.84 0 1.523.684 1.523 1.523 0 .84-.684 1.524-1.523 1.524zm5.586 3.047c-.84 0-1.523-.685-1.523-1.524s.684-1.523 1.523-1.523c.839 0 1.523.684 1.523 1.523 0 .84-.684 1.524-1.523 1.524zM6.344 29.047h3.123a1.523 1.523 0 010 3.047H6.344v3.047h3.123a1.523 1.523 0 010 3.046H6.344v3.047h3.123a1.523 1.523 0 010 3.047H6.344v.507c0 3.976 3.235 7.21 7.21 7.21 3.977 0 7.212-3.234 7.212-7.21V26.305H6.344v2.742z" fill="#F8CD24"/></svg><svg fill="none" viewBox="0 0 64 64" id="labRep" xmlns="http://www.w3.org/2000/svg"><g fill="#F8CD24"><path d="M45.584 11.297a.634.634 0 00.633-.633V6.997a.634.634 0 00-.633-.633h-2.879a1 1 0 01-.975-.777A2.06 2.06 0 0039.735 4a2.06 2.06 0 00-1.995 1.587 1 1 0 01-.975.777h-2.878a.634.634 0 00-.633.633v3.667c0 .349.284.633.633.633h11.697zM5.74 45.54a14.48 14.48 0 004.237 10.223 14.33 14.33 0 0011.953 4.125l.033-.003c.234-.028.465-.074.698-.113.164-.028.33-.048.493-.081.215-.044.425-.105.637-.159.175-.045.352-.081.525-.133.193-.057.38-.129.57-.194.187-.064.378-.121.562-.193.171-.067.336-.147.505-.22.197-.086.397-.165.591-.259.15-.073.294-.159.442-.238.204-.109.412-.212.611-.33.13-.077.253-.166.38-.247.209-.133.421-.262.623-.406.126-.09.243-.191.366-.284.195-.148.393-.292.581-.451a14.336 14.336 0 004.512-6.926c.406-1.342.61-2.721.61-4.111 0-1.46-.229-2.874-.638-4.216a13.06 13.06 0 01-6.475 1.738c-2.285 0-4.967-.611-7.883-2.435-6.802-4.254-11.963-.974-12.977-.234a14.42 14.42 0 00-.956 5.147zm4.452 3.462a10.121 10.121 0 002.328 3.647 9.99 9.99 0 003.924 2.43 1.001 1.001 0 01-.63 1.898 11.95 11.95 0 01-4.707-2.914 12.153 12.153 0 01-2.793-4.376 1 1 0 011.878-.685zm-1.613-4.461a1 1 0 011 1c0 .223.007.446.022.667a1 1 0 01-1.996.135 11.942 11.942 0 01-.026-.803.999.999 0 011-.999z"/><path d="M8.31 37.326c2.789-1.045 7.236-1.64 12.424 1.606 6.138 3.839 10.951 1.535 12.578.505a14.408 14.408 0 00-9.481-7.89 1.001 1.001 0 01-.751-.968v-4.05h-5.75v4.04a1 1 0 01-.75.968 14.43 14.43 0 00-8.27 5.789z"/><path d="M58.26 58.35V11.49c0-.91-.74-1.65-1.649-1.65H48.22v.82a2.643 2.643 0 01-2.64 2.64H33.89a2.643 2.643 0 01-2.64-2.64v-.82h-8.4c-.909 0-1.649.74-1.649 1.65v8.77h2.79a3.133 3.133 0 013.13 3.13c0 .823-.314 1.607-.885 2.208a3.692 3.692 0 01-.523.41c-.059.038-.121.065-.181.099-.127.072-.254.14-.386.193-.022.009-.043.024-.065.033v3.489a16.414 16.414 0 0110.414 9.628c.005.015.013.029.017.045a16.424 16.424 0 011.158 6.043c0 1.586-.233 3.16-.693 4.68a16.33 16.33 0 01-4.13 6.957c-.305.305-.623.594-.949.872-.107.09-.219.175-.328.263a15.89 15.89 0 01-.686.53c-.133.098-.269.188-.405.28a16.283 16.283 0 01-1.11.696c-.104.059-.204.125-.309.182h28.55c.909 0 1.649-.74 1.649-1.65l.001.002zm-6.271-6.272H38.892a1 1 0 110-2h13.097a1 1 0 110 2zm0-6.124H39.73a1 1 0 110-2h12.259a1 1 0 110 2zm0-6.125H38.892a1 1 0 110-2h13.097a1 1 0 110 2zm0-6.124H35.086a1 1 0 110-2h16.903a1 1 0 110 2zm0-6.125H29.375a1 1 0 110-2h22.613a1 1 0 01.001 2zm0-6.124H29.924a1 1 0 110-2h22.064a1 1 0 01.001 2z"/><path d="M24.045 24.53a1.22 1.22 0 00.777-.346c.176-.187.298-.49.298-.794 0-.623-.507-1.13-1.13-1.13h-7.57c-.3 0-.585.12-.802.337a1.147 1.147 0 00-.338.793c0 .607.485 1.117 1.083 1.14h7.682z"/></g></svg><svg fill="none" viewBox="0 0 51 50" id="list" xmlns="http://www.w3.org/2000/svg"><path d="M37.423 9.5H13.577A3.577 3.577 0 0010 13.077v23.846a3.577 3.577 0 003.577 3.577h23.846A3.577 3.577 0 0041 36.923V13.077A3.577 3.577 0 0037.423 9.5zM15.961 22.615h2.385a1.192 1.192 0 011.192 1.193v2.384a1.192 1.192 0 01-1.192 1.193h-2.385a1.193 1.193 0 01-1.192-1.193v-2.384a1.192 1.192 0 011.192-1.193zM14.77 19.04v-2.385a1.192 1.192 0 011.192-1.193h2.385a1.192 1.192 0 011.192 1.193v2.384a1.193 1.193 0 01-1.192 1.193h-2.385a1.193 1.193 0 01-1.192-1.193zm1.192 10.73h2.385a1.192 1.192 0 011.192 1.193v2.384a1.192 1.192 0 01-1.192 1.193h-2.385a1.193 1.193 0 01-1.192-1.193v-2.384a1.193 1.193 0 011.192-1.193zm7.154 1.193H35.04a1.192 1.192 0 010 2.384H23.114a1.192 1.192 0 010-2.384zM21.923 25a1.192 1.192 0 011.192-1.192H35.04a1.192 1.192 0 110 2.384H23.114A1.192 1.192 0 0121.923 25zm13.116-5.962H23.114a1.192 1.192 0 010-2.384H35.04a1.192 1.192 0 010 2.384z" fill="#F8CD24"/></svg><svg fill="none" viewBox="0 0 17 17" id="listCheck" xmlns="http://www.w3.org/2000/svg"><circle cx="8.5" cy="8.5" r="8.5" fill="#89BD42"/><path d="M5 8l3 3 4.5-4.5" stroke="#fff"/></svg><svg fill="none" viewBox="0 0 42 42" id="mail2" xmlns="http://www.w3.org/2000/svg"><g clip-path="url(#jclip0_100_693)"><path d="M41.63 8.344L28.892 21 41.63 33.656a3.65 3.65 0 00.37-1.582V9.926c0-.569-.14-1.1-.37-1.582zM38.309 6.234H3.69c-.568 0-1.1.14-1.581.37l16.28 16.198a3.694 3.694 0 005.22 0L39.89 6.604a3.649 3.649 0 00-1.581-.37zM.37 8.344A3.649 3.649 0 000 9.926v22.148c0 .568.14 1.1.37 1.582L13.108 21 .37 8.344z" fill="#F8CD24"/><path d="M27.152 22.74l-1.802 1.802a6.159 6.159 0 01-8.7 0l-1.802-1.802L2.11 35.395c.481.23 1.013.37 1.581.37H38.31c.568 0 1.1-.14 1.581-.37L27.152 22.74z" fill="#F8CD24"/></g><defs><clipPath id="jclip0_100_693"><path fill="#fff" d="M0 0h42v42H0z"/></clipPath></defs></svg><svg fill="none" viewBox="0 0 44 44" id="map" xmlns="http://www.w3.org/2000/svg"><g clip-path="url(#kclip0_100_651)"><path d="M34.977 20.71c-4.975 0-9.024 4.05-9.024 9.024 0 1.9.585 3.718 1.708 5.277l6.285 8.473c.242.325.625.516 1.03.516h.002a1.29 1.29 0 001.03-.517l6.54-8.844A8.967 8.967 0 0044 29.734c0-4.975-4.048-9.023-9.023-9.023zm0 12.892a3.871 3.871 0 01-3.868-3.868 3.871 3.871 0 013.868-3.867 3.871 3.871 0 013.867 3.867 3.872 3.872 0 01-3.867 3.868zM1.952.184A1.288 1.288 0 000 1.289v25.867c0 .454.238.873.626 1.106l12.35 7.358V6.747L1.953.184zM40.796 7.918L28.531.558v19.539a11.53 11.53 0 016.446-1.964c2.384 0 4.6.726 6.445 1.964V9.023a1.29 1.29 0 00-.626-1.105zM25.953.559L15.555 6.747V35.62l7.913-4.696c-.04-.395-.093-.789-.093-1.19 0-2.734.99-5.217 2.578-7.202V.559z" fill="#F8CD24"/></g><defs><clipPath id="kclip0_100_651"><path fill="#fff" d="M0 0h44v44H0z"/></clipPath></defs></svg><svg fill="none" viewBox="0 0 40 40" id="phoneCall" xmlns="http://www.w3.org/2000/svg"><g clip-path="url(#lclip0_100_713)" fill="#F8CD24"><path d="M16.564 23.437c-3.819-3.818-4.68-7.636-4.875-9.166a1.37 1.37 0 01.394-1.148l3.09-3.088a1.38 1.38 0 00.194-1.707L10.447.69A1.38 1.38 0 008.662.187L.763 3.907c-.514.253-.817.8-.758 1.37.414 3.93 2.127 13.594 11.624 23.091 9.496 9.498 19.159 11.21 23.092 11.625a1.372 1.372 0 001.37-.76l3.72-7.896a1.38 1.38 0 00-.5-1.785l-7.64-4.918a1.38 1.38 0 00-1.706.194l-3.088 3.09c-.3.302-.725.447-1.148.393-1.53-.194-5.348-1.056-9.165-4.874z"/><path d="M31.724 21.38a1.38 1.38 0 01-1.38-1.38C30.339 14.29 25.712 9.662 20 9.655a1.38 1.38 0 010-2.759c7.234.008 13.096 5.87 13.103 13.104a1.38 1.38 0 01-1.379 1.38z"/><path d="M38.62 21.38A1.38 1.38 0 0137.242 20C37.231 10.482 29.518 2.77 20 2.759A1.38 1.38 0 0120 0c11.04.012 19.988 8.96 20 20a1.38 1.38 0 01-1.38 1.38z"/></g><defs><clipPath id="lclip0_100_713"><path fill="#fff" d="M0 0h40v40H0z"/></clipPath></defs></svg><svg fill="none" viewBox="0 0 62 62" id="scientist" xmlns="http://www.w3.org/2000/svg"><g clip-path="url(#mclip0_107_613)"><path d="M62 16.964c0-1.823-1.6-3.3-3.424-3.3h-6.044a3.3 3.3 0 00-3.295 3.106l6.365-1.299-6.702 3.352-5.9-.596v-3.674a.988.988 0 000-1.975h-3.293a.988.988 0 000 1.975v3.355a2.535 2.535 0 00-.254 5.054l.254.025v1.051c0 .907.74 1.647 1.647 1.647.9 0 1.646-.735 1.646-1.647v-.718l6.122.618c.47.047.951-.037 1.387-.255l7.36-3.68-6.43 5.537a2.287 2.287 0 01-1.72.545l-.356-.049V58.02a2.854 2.854 0 005.707 0l.002-22.611h1.16c-.005.113.06 22.506.06 22.62a2.853 2.853 0 002.854 2.845h.008A2.854 2.854 0 0062 58.013v-41.05zM55.913 11.627a5.25 5.25 0 100-10.502 5.25 5.25 0 000 10.502zM27.758 57.352l-3.337-14.78c-.209-.921-.928-1.671-1.788-2.021.004 15.307 0 17.16 0 19.093a2.865 2.865 0 005.125-2.292zM14.712 21.568a5.268 5.268 0 100-10.537 5.268 5.268 0 000 10.537z" fill="#F8CD24"/><path d="M43.913 34.892H32.526a1.317 1.317 0 00-.381-2.578h-3.978a5.1 5.1 0 01-4.654-3.026l1.547-2.802 1.337 1.508a.427.427 0 00.603.036l1.824-1.618a.427.427 0 00.036-.603l-2.842-3.204a5.061 5.061 0 012.149-.477 5.1 5.1 0 013.231 1.156 1.317 1.317 0 001.673-2.035 7.742 7.742 0 00-4.904-1.756c-1.44 0-2.79.398-3.945 1.086l-2.248-2.535a.427.427 0 00-.603-.036l-1.824 1.618a.427.427 0 00-.037.603l2.202 2.482c-.13.18.143-.297-3.743 6.743l-7.24-4.795 4.036 1.559a3.559 3.559 0 00-2.95-3.768l-2.062-.352a7.222 7.222 0 00-8.41 6.464l-.98 10.605a3.947 3.947 0 003.05 4.21H1.976a1.976 1.976 0 000 3.952h4.22v7.839H4.603c-.437 0-.855.173-1.164.482l-2.393 2.392a1.646 1.646 0 102.329 2.328l1.91-1.91h5.118l1.91 1.91a1.647 1.647 0 002.329-2.328l-2.393-2.392a1.647 1.647 0 00-1.164-.482H9.49v-7.839h5.313v-7.217a4.274 4.274 0 01-1.3-1.965l-.728-.188.661-3.868-4.738-5.052c9.627 6.377 8.722 5.78 8.84 5.853h-.364a1.976 1.976 0 00-.395 3.912v20.08a1.976 1.976 0 003.952 0c.002-17.616.004-20.058.004-20.058s8.03-.003 19.754 0v20.058a1.976 1.976 0 003.951 0V38.77a1.975 1.975 0 00-.527-3.878zm-23.834 0c.338-.213.622-.509.819-.866l1.153-2.09c.212.274.44.534.685.776a1.318 1.318 0 00.562 2.18h-3.219z" fill="#F8CD24"/></g><defs><clipPath id="mclip0_107_613"><path fill="#fff" d="M0 0h62v62H0z"/></clipPath></defs></svg><svg fill="none" viewBox="0 0 51 50" id="testTube" xmlns="http://www.w3.org/2000/svg"><path d="M43 41.2c0 1.08-.72 1.8-1.8 1.8H8.8C7.72 43 7 42.1 7 41.2V8.8C7 7.9 7.9 7 8.8 7c1.08 0 1.8.9 1.8 1.8v10.8h3.6V16c-.9 0-1.8-.72-1.8-1.8 0-.9.9-1.8 1.8-1.8h9c1.08 0 1.8.9 1.8 1.8 0 1.08-.72 1.8-1.8 1.8v3.6h5.4V16c-.9 0-1.8-.72-1.8-1.8 0-.9.9-1.8 1.8-1.8h9c1.08 0 1.8.9 1.8 1.8 0 1.08-.72 1.8-1.8 1.8v3.6h3.6c1.08 0 1.8.9 1.8 1.8 0 1.08-.72 1.8-1.8 1.8h-3.6v8.1c0 2.52-1.98 4.5-4.5 4.5s-4.5-1.98-4.5-4.5v-8.1h-5.4v8.1c0 2.52-1.98 4.5-4.5 4.5s-4.5-1.98-4.5-4.5v-8.1h-3.6v16.2h30.6c1.08 0 1.8.9 1.8 1.8z" fill="#F8CD24"/></svg><svg fill="none" viewBox="0 0 50 50" id="virtLab" xmlns="http://www.w3.org/2000/svg"><g fill="#F8CD24" clip-path="url(#oclip0_107_583)"><path d="M29.576 2.93h10.887a1.465 1.465 0 000-2.93H29.576a1.465 1.465 0 000 2.93zM8.993 2.93h11.442a1.465 1.465 0 000-2.93H8.993a1.465 1.465 0 000 2.93zM37.691 22.747a1.465 1.465 0 01-.866-1.337V5.825h-3.61v15.762c0 .549-.307 1.051-.795 1.302a6.112 6.112 0 00-2.194 1.9h9.95a6.098 6.098 0 00-2.485-2.042zM29.108 28.312a6.103 6.103 0 006.096 6.096 6.103 6.103 0 006.066-6.69H29.137c-.019.197-.03.394-.03.594z"/><path d="M48.535 8.461h-8.78v12.057a9.041 9.041 0 014.475 7.794c0 4.977-4.049 9.026-9.026 9.026-4.977 0-9.026-4.05-9.026-9.026a8.99 8.99 0 014.106-7.567V8.461H19.731V32.31a5.033 5.033 0 01-5.028 5.028 5.033 5.033 0 01-5.028-5.028V8.46h-8.21C.656 8.461 0 9.117 0 9.926V41.71c0 .809.656 1.464 1.465 1.464h12.227c1.093-.063 2.04.878 2.02 1.972.011 1.11-.912 2.018-2.02 1.924H9.319c-.788 0-1.467.606-1.504 1.394-.04.842.63 1.536 1.463 1.536H40.68c.788 0 1.467-.606 1.504-1.394a1.465 1.465 0 00-1.463-1.536h-4.414c-1.108.094-2.03-.813-2.02-1.924-.02-1.093.927-2.036 2.02-1.972h12.227c.809 0 1.465-.655 1.465-1.464V9.926c0-.809-.656-1.465-1.465-1.465z"/><path d="M12.605 5.825h4.196V24.64h-4.196V5.825zM12.605 32.31a2.1 2.1 0 002.098 2.098 2.1 2.1 0 002.098-2.098v-4.74h-4.196v4.74z"/></g><defs><clipPath id="oclip0_107_583"><path fill="#fff" d="M0 0h50v50H0z"/></clipPath></defs></svg><svg fill="none" viewBox="0 0 50 50" id="wallet" xmlns="http://www.w3.org/2000/svg"><g fill="#F8CD24"><path d="M16.478 15.488l12.757-3.482-.676-1.366a1.798 1.798 0 00-2.407-.812l-11.42 5.66h1.746zM33.195 12.107c-.158 0-.316.022-.474.065l-2.997.819-9.153 2.497H35.488l-.561-2.055a1.794 1.794 0 00-1.732-1.326zM37.36 16.746H10.8a1.794 1.794 0 00-1.736 1.326 1.86 1.86 0 00-.065.47v20.02c0 .992.805 1.797 1.797 1.797h26.56c.991 0 1.796-.805 1.796-1.797V33.55H28.49a3.056 3.056 0 01-3.054-3.054V26.499c0-.827.33-1.578.866-2.127a3.025 3.025 0 012.184-.924H39.153v-4.905a1.792 1.792 0 00-1.792-1.797z"/><path d="M40.414 25.166a1.796 1.796 0 00-1.21-.471H28.49c-.992 0-1.797.805-1.797 1.797v3.999c0 .992.805 1.797 1.797 1.797h10.712c.205 0 .4-.036.582-.097.238-.08.45-.209.63-.374A1.79 1.79 0 0041 30.491v-4c0-.524-.226-.998-.586-1.325zm-8.171 3.683a.899.899 0 01-.899.898h-.596a.899.899 0 01-.899-.898v-.597a.908.908 0 01.898-.898h.597c.496 0 .899.402.899.898v.597z"/></g></svg></svg>