<svg width="24" height="24" viewBox="0 0 24 24" fill="none" xmlns="http://www.w3.org/2000/svg">
<g clip-path="url(#clip0_98_2838)">
<path d="M20.4839 3.51344C15.7969 -1.17214 8.1989 -1.17101 3.51332 3.51602C-1.17226 8.20305 -1.17114 15.801 3.5159 20.4866C8.20293 25.1722 15.8009 25.171 20.4865 20.484C22.7368 18.233 24.0006 15.1803 23.9999 11.9974C23.9992 8.8151 22.7345 5.76335 20.4839 3.51344ZM18.1735 16.7159C18.173 16.7164 18.1724 16.717 18.1719 16.7175V16.7135L17.5639 17.3175C16.7775 18.1137 15.6323 18.4413 14.5438 18.1815C13.4472 17.8879 12.4047 17.4207 11.4559 16.7975C10.5743 16.2341 9.7574 15.5755 9.01986 14.8335C8.34126 14.1598 7.7316 13.4201 7.19985 12.6255C6.61822 11.7704 6.15786 10.8389 5.83185 9.85746C5.45811 8.70452 5.76782 7.43941 6.63186 6.58947L7.34385 5.87749C7.5418 5.67864 7.86346 5.67794 8.06225 5.87589C8.06277 5.87641 8.06333 5.87692 8.06385 5.87749L10.3118 8.12547C10.5107 8.32342 10.5114 8.64508 10.3134 8.84388C10.3129 8.84439 10.3124 8.84491 10.3118 8.84547L8.99183 10.1655C8.61308 10.5401 8.56546 11.1354 8.87985 11.5655C9.35727 12.2207 9.8856 12.8373 10.4599 13.4095C11.1001 14.0525 11.7962 14.6375 12.5398 15.1575C12.9696 15.4572 13.5521 15.4067 13.9238 15.0375L15.1998 13.7415C15.3978 13.5427 15.7194 13.542 15.9182 13.7399C15.9187 13.7404 15.9193 13.741 15.9198 13.7415L18.1718 15.9975C18.3707 16.1954 18.3714 16.517 18.1735 16.7159Z" fill="#263238"/>
</g>
<defs>
<clipPath id="clip0_98_2838">
<rect width="24" height="24" fill="white"/>
</clipPath>
</defs>
</svg>
