<svg width="22" height="22" viewBox="0 0 22 22" fill="none" xmlns="http://www.w3.org/2000/svg">
<path d="M20.1163 8.75879C19.6556 8.29816 18.9888 8.13316 18.37 8.32566L17.875 8.47691V3.43066C17.875 2.29629 16.9469 1.36816 15.8125 1.36816H3.4375C2.30313 1.36816 1.375 2.29629 1.375 3.43066V13.0557C1.375 14.19 2.30313 15.1182 3.4375 15.1182H10.6975L10.505 16.6513C10.4431 17.1257 10.6081 17.5863 10.945 17.9232C11.2338 18.2119 11.6187 18.37 12.0244 18.37C12.0863 18.37 12.155 18.37 12.2169 18.3563L13.9975 18.1363L14.52 19.4975C14.7813 20.185 15.4137 20.6113 16.1425 20.6113H16.2044C16.9606 20.5838 17.5863 20.1025 17.8131 19.3807L20.5494 10.4913C20.7419 9.87254 20.57 9.20566 20.1163 8.74504V8.75879ZM2.75 13.0625V3.43754C2.75 3.05941 3.05938 2.75004 3.4375 2.75004H15.8125C16.1906 2.75004 16.5 3.05941 16.5 3.43754V8.90316L9.48063 11.0619C8.75875 11.2819 8.2775 11.9144 8.25 12.6638C8.23625 13.0694 8.36 13.4407 8.58 13.7432H3.4375C3.05938 13.7432 2.75 13.4338 2.75 13.0557V13.0625ZM12.045 17.0019C11.9831 17.0019 11.935 16.9813 11.9144 16.9538C11.8869 16.9263 11.8594 16.885 11.8663 16.8232L12.045 15.3794L13.0831 15.7782L13.4819 16.8163L12.0381 16.995L12.045 17.0019ZM19.2294 10.0994L16.4931 18.9888C16.4244 19.2157 16.2319 19.2432 16.1562 19.25C16.0737 19.25 15.8881 19.2363 15.7987 19.0163L14.4169 15.4275L16.1838 13.6607C16.4519 13.3925 16.4519 12.9594 16.1838 12.6913C15.9156 12.4232 15.4825 12.4232 15.2144 12.6913L13.4475 14.4582L9.85875 13.0763C9.63875 12.9938 9.61812 12.8013 9.625 12.7188C9.63188 12.6363 9.65938 12.4507 9.88625 12.3819L18.7756 9.64566C18.8169 9.63191 18.8512 9.62504 18.8856 9.62504C19.0162 9.62504 19.1056 9.69379 19.14 9.73504C19.1881 9.78316 19.2913 9.91379 19.2294 10.0994Z" fill="#F8CD24"/>
<path d="M11.275 7.87212L15.5375 4.67524C15.84 4.44837 15.9019 4.01524 15.675 3.71274C15.4481 3.41024 15.015 3.34837 14.7125 3.57524L10.45 6.77212C9.96187 7.13649 9.28812 7.13649 8.8 6.77212L4.5375 3.57524C4.235 3.34837 3.80187 3.41024 3.575 3.71274C3.34812 4.01524 3.41 4.44837 3.7125 4.67524L7.975 7.87212C8.46312 8.23649 9.04062 8.41524 9.625 8.41524C10.2094 8.41524 10.7869 8.23649 11.275 7.87212Z" fill="#F8CD24"/>
</svg>
