<svg width="19" height="19" viewBox="0 0 19 19" fill="none" xmlns="http://www.w3.org/2000/svg">
<g clip-path="url(#clip0_96_1343)">
<path d="M17.0112 14.1267C16.6823 13.8821 16.2174 13.9504 15.9727 14.2792C15.8381 14.4601 15.6942 14.6375 15.5447 14.8065C15.2733 15.1136 15.3021 15.5827 15.6092 15.8542C15.7504 15.979 15.9258 16.0403 16.1005 16.0403C16.3058 16.0403 16.5101 15.9556 16.6568 15.7897C16.8338 15.5895 17.0043 15.3794 17.1636 15.1652C17.4083 14.8363 17.3401 14.3713 17.0112 14.1267Z" fill="#F8CD24"/>
<path d="M18.2524 10.646C17.8521 10.5589 17.4565 10.8129 17.3693 11.2134C17.3214 11.4337 17.2634 11.6544 17.1969 11.8695C17.0759 12.2612 17.2953 12.6767 17.6869 12.7977C17.7599 12.8202 17.8337 12.831 17.9063 12.831C18.2232 12.831 18.5166 12.6263 18.6151 12.3076C18.694 12.0524 18.7628 11.7905 18.8198 11.5291C18.9069 11.1286 18.6529 10.7332 18.2524 10.646Z" fill="#F8CD24"/>
<path d="M13.4387 16.5039C13.2417 16.6139 13.0377 16.7167 12.8324 16.8095C12.4588 16.9782 12.2927 17.4178 12.4614 17.7913C12.5854 18.0658 12.8555 18.2282 13.1383 18.2282C13.2404 18.2282 13.3442 18.207 13.4433 18.1623C13.6869 18.0523 13.9287 17.9304 14.1624 17.8C14.5203 17.6002 14.6484 17.148 14.4486 16.7901C14.2488 16.4323 13.7967 16.3042 13.4387 16.5039Z" fill="#F8CD24"/>
<path d="M8.75781 3.5625V9.19259L6.03625 11.9141C5.74642 12.204 5.74642 12.6739 6.03625 12.9637C6.1812 13.1087 6.37108 13.1811 6.56108 13.1811C6.75101 13.1811 6.94097 13.1086 7.08592 12.9637L10.0248 10.0248C10.164 9.88564 10.2422 9.69683 10.2422 9.5V3.5625C10.2422 3.15259 9.90991 2.82031 9.5 2.82031C9.09009 2.82031 8.75781 3.15259 8.75781 3.5625Z" fill="#F8CD24"/>
<path d="M18.2578 1.5957C17.8479 1.5957 17.5156 1.92798 17.5156 2.33789V4.3988C15.7881 1.68952 12.7712 0 9.5 0C6.96246 0 4.57681 0.988186 2.78246 2.78246C0.988186 4.57681 0 6.96246 0 9.5C0 12.0375 0.988186 14.4232 2.78246 16.2175C4.57681 18.0118 6.96246 19 9.5 19C9.50627 19 9.51232 18.9992 9.51855 18.9991C9.52479 18.9992 9.53084 19 9.53711 19C9.80459 19 10.0747 18.9887 10.34 18.9665C10.7485 18.9323 11.0519 18.5735 11.0177 18.165C10.9835 17.7565 10.6251 17.453 10.2162 17.4873C9.99189 17.5061 9.76344 17.5156 9.53711 17.5156C9.53084 17.5156 9.52479 17.5164 9.51855 17.5166C9.51232 17.5164 9.50627 17.5156 9.5 17.5156C5.08016 17.5156 1.48438 13.9198 1.48438 9.5C1.48438 5.08016 5.08016 1.48438 9.5 1.48438C12.3484 1.48438 14.9683 3.00263 16.4 5.41797H14.3592C13.9493 5.41797 13.617 5.75025 13.617 6.16016C13.617 6.57007 13.9493 6.90234 14.3592 6.90234H16.625C17.077 6.90234 17.4999 6.77532 17.8599 6.55526C17.883 6.54205 17.9053 6.52784 17.9265 6.51251C18.5725 6.08757 19 5.35663 19 4.52734V2.33789C19 1.92798 18.6677 1.5957 18.2578 1.5957Z" fill="#F8CD24"/>
</g>
<defs>
<clipPath id="clip0_96_1343">
<rect width="19" height="19" fill="white"/>
</clipPath>
</defs>
</svg>
