<svg width="24" height="24" viewBox="0 0 24 24" fill="none" xmlns="http://www.w3.org/2000/svg">
<g id="Group 369">
<path id="Vector" d="M0.199951 23.4254L1.83876 17.6049C0.784909 15.8146 0.23005 13.7776 0.23005 11.685C0.23005 5.24186 5.47191 0 11.915 0C18.3582 0 23.6 5.24186 23.6 11.685C23.6 18.1281 18.3582 23.37 11.915 23.37C9.9074 23.37 7.94154 22.8561 6.20245 21.8803L0.199951 23.4254ZM6.50932 19.7544L6.86699 19.9728C8.38327 20.8985 10.1289 21.3878 11.915 21.3878C17.2652 21.3878 21.6178 17.0351 21.6178 11.685C21.6178 6.33484 17.2652 1.98216 11.915 1.98216C6.56489 1.98216 2.21221 6.33484 2.21221 11.685C2.21221 13.5492 2.74204 15.3595 3.74428 16.9202L3.98515 17.2952L3.04142 20.6471L6.50932 19.7544Z" fill="#F8CD24"/>
<path id="Vector_2" d="M8.63257 6.24632L7.87436 6.20499C7.6362 6.19199 7.4026 6.27157 7.22259 6.42794C6.85501 6.74714 6.26726 7.36426 6.08674 8.16843C5.81753 9.36749 6.23357 10.8358 7.31032 12.304C8.38708 13.7723 10.3937 16.1215 13.942 17.1249C15.0854 17.4482 15.9848 17.2302 16.6788 16.7863C17.2285 16.4347 17.6074 15.8704 17.7439 15.2324L17.865 14.667C17.9034 14.4873 17.8122 14.3049 17.6452 14.228L15.0827 13.0468C14.9164 12.9702 14.7191 13.0186 14.6072 13.1636L13.6013 14.4677C13.5253 14.5663 13.3952 14.6053 13.2777 14.5641C12.5888 14.3219 10.2811 13.3555 9.01491 10.9164C8.95999 10.8106 8.97365 10.6822 9.05154 10.592L10.013 9.47974C10.1112 9.36617 10.136 9.20649 10.077 9.06848L8.9724 6.48425C8.9136 6.34667 8.78182 6.25447 8.63257 6.24632Z" fill="#F8CD24"/>
</g>
</svg>
